<svg width="371" height="263" viewBox="0 0 371 263" fill="none" xmlns="http://www.w3.org/2000/svg">
<path d="M266.476 13.3739L271.991 20.9062L357.596 27.5629L353.176 12.5687L266.476 13.3739Z" fill="#2E1E0F" stroke="black" stroke-width="1.43487"/>
<path d="M358.406 28.0551C358.43 28.1362 358.55 28.1166 358.546 28.0322L358.483 26.6408L353.94 11.538C353.893 11.38 353.661 11.4115 353.66 11.5762L353.654 12.3445L358.406 28.0551Z" fill="#2E1E0F" stroke="black" stroke-width="0.358718"/>
<path d="M353.665 10.8742L266.032 11.0589L266.005 12.3128L353.656 12.1L353.665 10.8742Z" fill="#2E1E0F" stroke="black" stroke-width="0.358718"/>
<path d="M270.337 27.8166L275.921 36.5564L361.551 43.3605L357.204 26.1001L270.337 27.8166Z" fill="#2E1E0F" stroke="black" stroke-width="1.43487"/>
<path d="M362.322 43.8091C362.343 43.8919 362.466 43.8737 362.463 43.788L362.412 42.1973L357.995 25.0228C357.953 24.8607 357.715 24.8905 357.713 25.0581L357.7 25.9405L362.322 43.8091Z" fill="#2E1E0F" stroke="black" stroke-width="0.358718"/>
<path d="M357.725 24.2639L270.007 23.6185L269.96 25.6292L357.705 25.6617L357.725 24.2639Z" fill="#2E1E0F" stroke="black" stroke-width="0.358718"/>
<path d="M273.31 40.394L278.894 49.1338L364.524 55.9379L360.177 38.6775L273.31 40.394Z" fill="#2E1E0F" stroke="black" stroke-width="1.43487"/>
<path d="M365.295 56.3864C365.316 56.4693 365.439 56.451 365.436 56.3654L365.385 54.7746L360.968 37.6001C360.926 37.4381 360.688 37.4679 360.686 37.6354L360.673 38.5178L365.295 56.3864Z" fill="#2E1E0F" stroke="black" stroke-width="0.358718"/>
<path d="M360.698 36.8412L272.98 36.1958L272.933 38.2066L360.678 38.239L360.698 36.8412Z" fill="#2E1E0F" stroke="black" stroke-width="0.358718"/>
<path d="M275.63 49.9241L281.214 58.6638L366.844 65.4679L362.497 48.2075L275.63 49.9241Z" fill="#2E1E0F" stroke="black" stroke-width="1.43487"/>
<path d="M367.615 65.9165C367.636 65.9993 367.759 65.9811 367.756 65.8955L367.705 64.3047L363.288 47.1302C363.246 46.9681 363.008 46.9979 363.006 47.1655L362.993 48.0479L367.615 65.9165Z" fill="#2E1E0F" stroke="black" stroke-width="0.358718"/>
<path d="M363.018 46.3713L275.3 45.7259L275.253 47.7367L362.998 47.7691L363.018 46.3713Z" fill="#2E1E0F" stroke="black" stroke-width="0.358718"/>
<path d="M96.3667 53.2602L363.221 57.6097L362.827 75.9001L96.003 70.1562L96.3667 53.2602Z" fill="#78502C" stroke="black" stroke-width="1.43487"/>
<path d="M249.782 206.778C179.673 206.377 159.912 204.026 119.452 206.033C117.215 210.446 114.052 221.995 119.298 232.89C200.542 235.144 240.024 236.563 249.609 236.991L355.671 237.596C353.086 231.86 352.101 226.881 351.987 222.688C351.764 214.527 354.842 209.349 355.843 207.383L249.782 206.778Z" fill="#78512C"/>
<path d="M355.671 237.596C359.753 226.284 357.487 212.741 355.843 207.383C354.842 209.349 351.764 214.527 351.987 222.688C352.101 226.881 353.086 231.86 355.671 237.596Z" fill="#78512C"/>
<path d="M249.782 206.778C179.673 206.377 159.912 204.026 119.452 206.033C117.215 210.446 114.052 221.995 119.298 232.89C200.542 235.144 240.024 236.563 249.609 236.991L355.671 237.596M249.782 206.778C284.126 206.974 351.349 207.357 355.843 207.383M249.782 206.778L355.843 207.383M355.843 207.383C357.487 212.741 359.753 226.284 355.671 237.596M355.843 207.383C354.842 209.349 351.764 214.527 351.987 222.688C352.101 226.881 353.086 231.86 355.671 237.596" stroke="black" stroke-width="1.85895"/>
<path d="M354.98 215.059C355.349 214.838 356.121 215.749 356.261 221.165C356.401 226.582 355.707 227.432 355.342 227.18C354.977 227.244 354.239 226.142 354.202 221.227C354.166 216.312 354.92 216.111 355.301 216.625C355.664 217.412 356.27 219.804 355.796 223.07C355.322 226.336 354.726 223.102 354.743 221.841C354.702 220.477 354.742 217.933 355.225 218.675C355.83 219.603 355.48 222.607 355.31 221.509" stroke="black" stroke-width="0.358718"/>
<path d="M354.582 208.175C330.371 218.2 249.273 237.527 120.022 231.767M117.382 222.784C150.185 222.971 226.456 213.778 236.741 208.319M236.741 208.319C236.803 208.286 236.863 208.253 236.921 208.22C239.98 206.474 237.101 208.049 236.741 208.319Z" stroke="black" stroke-width="0.358718"/>
<path d="M166.625 206.025C152.388 207.259 122.402 210.939 116.348 215.783" stroke="black" stroke-width="0.358718"/>
<path d="M250.156 178.695C180.047 178.294 160.286 175.943 119.826 177.95C117.588 182.363 114.425 193.912 119.672 204.807C200.916 207.061 240.398 208.48 249.983 208.908L356.044 209.514C353.46 203.777 352.475 198.798 352.361 194.605C352.138 186.444 355.216 181.266 356.217 179.3L250.156 178.695Z" fill="#78512C"/>
<path d="M356.044 209.514C360.127 198.201 357.86 184.658 356.217 179.3C355.216 181.266 352.138 186.444 352.361 194.605C352.475 198.798 353.46 203.777 356.044 209.514Z" fill="#78512C"/>
<path d="M250.156 178.695C180.047 178.294 160.286 175.943 119.826 177.95C117.588 182.363 114.425 193.912 119.672 204.807C200.916 207.061 240.398 208.48 249.983 208.908L356.044 209.514M250.156 178.695C284.5 178.891 351.723 179.275 356.217 179.3M250.156 178.695L356.217 179.3M356.217 179.3C357.86 184.658 360.127 198.201 356.044 209.514M356.217 179.3C355.216 181.266 352.138 186.444 352.361 194.605C352.475 198.798 353.46 203.777 356.044 209.514" stroke="black" stroke-width="1.85895"/>
<path d="M355.68 186.34C356.049 186.119 356.822 187.031 356.962 192.447C357.101 197.863 356.407 198.713 356.042 198.462C355.678 198.525 354.94 197.423 354.903 192.508C354.866 187.593 355.62 187.392 356.002 187.906C356.364 188.694 356.97 191.086 356.497 194.351C356.023 197.617 355.426 194.383 355.443 193.122C355.403 191.758 355.442 189.215 355.926 189.957C356.53 190.884 356.18 193.888 356.01 192.79" stroke="black" stroke-width="0.358718"/>
<path d="M356.339 176.638C332.127 186.664 251.029 205.99 121.778 200.23M119.139 191.247C151.941 191.434 228.212 182.241 238.497 176.783M238.497 176.783C238.56 176.749 238.62 176.716 238.677 176.684C241.736 174.937 238.857 176.512 238.497 176.783Z" stroke="black" stroke-width="0.358718"/>
<path d="M168.379 174.489C154.142 175.723 124.156 179.402 118.101 184.246" stroke="black" stroke-width="0.358718"/>
<path d="M249.942 149.373C179.834 148.972 160.072 146.621 119.613 148.628C117.375 153.041 114.212 164.59 119.459 175.485C200.703 177.739 240.184 179.158 249.77 179.586L355.831 180.192C353.247 174.455 352.262 169.476 352.147 165.283C351.925 157.122 355.003 151.944 356.004 149.978L249.942 149.373Z" fill="#78512C"/>
<path d="M355.831 180.192C359.914 168.879 357.647 155.336 356.004 149.978C355.003 151.944 351.925 157.122 352.147 165.283C352.262 169.476 353.247 174.455 355.831 180.192Z" fill="#78512C"/>
<path d="M249.942 149.373C179.834 148.972 160.072 146.621 119.613 148.628C117.375 153.041 114.212 164.59 119.459 175.485C200.703 177.739 240.184 179.158 249.77 179.586L355.831 180.192M249.942 149.373C284.286 149.569 351.51 149.953 356.004 149.978M249.942 149.373L356.004 149.978M356.004 149.978C357.647 155.336 359.914 168.879 355.831 180.192M356.004 149.978C355.003 151.944 351.925 157.122 352.147 165.283C352.262 169.476 353.247 174.455 355.831 180.192" stroke="black" stroke-width="1.85895"/>
<path d="M355.141 157.654C355.509 157.433 356.282 158.345 356.422 163.761C356.562 169.177 355.867 170.027 355.503 169.776C355.138 169.839 354.4 168.737 354.363 163.822C354.326 158.907 355.08 158.706 355.462 159.22C355.824 160.008 356.431 162.399 355.957 165.665C355.483 168.931 354.886 165.697 354.903 164.436C354.863 163.072 354.902 160.529 355.386 161.27C355.991 162.198 355.641 165.202 355.471 164.104" stroke="black" stroke-width="0.358718"/>
<path d="M354.743 150.77C330.532 160.796 249.433 180.122 120.182 174.362M117.543 165.379C150.346 165.566 226.617 156.374 236.901 150.915M236.901 150.915C236.964 150.881 237.024 150.848 237.081 150.816C240.14 149.069 237.262 150.644 236.901 150.915Z" stroke="black" stroke-width="0.358718"/>
<path d="M166.785 148.621C152.549 149.855 122.563 153.534 116.508 158.378" stroke="black" stroke-width="0.358718"/>
<path d="M250.903 121.407C180.795 121.007 161.034 118.656 120.574 120.663C118.336 125.075 115.173 136.624 120.42 147.519C201.664 149.773 241.146 151.192 250.731 151.62L356.792 152.226C354.208 146.49 353.223 141.51 353.109 137.318C352.886 129.156 355.964 123.978 356.965 122.013L250.903 121.407Z" fill="#78512C"/>
<path d="M356.792 152.226C360.875 140.913 358.608 127.37 356.965 122.013C355.964 123.978 352.886 129.156 353.109 137.318C353.223 141.51 354.208 146.49 356.792 152.226Z" fill="#78512C"/>
<path d="M250.903 121.407C180.795 121.007 161.034 118.656 120.574 120.663C118.336 125.075 115.173 136.624 120.42 147.519C201.664 149.773 241.146 151.192 250.731 151.62L356.792 152.226M250.903 121.407C285.248 121.603 352.471 121.987 356.965 122.013M250.903 121.407L356.965 122.013M356.965 122.013C358.608 127.37 360.875 140.913 356.792 152.226M356.965 122.013C355.964 123.978 352.886 129.156 353.109 137.318C353.223 141.51 354.208 146.49 356.792 152.226" stroke="black" stroke-width="1.85895"/>
<path d="M356.102 129.688C356.471 129.467 357.243 130.379 357.383 135.795C357.523 141.211 356.828 142.061 356.464 141.81C356.099 141.873 355.361 140.771 355.324 135.856C355.287 130.941 356.042 130.74 356.423 131.254C356.786 132.042 357.392 134.434 356.918 137.699C356.444 140.965 355.847 137.731 355.865 136.47C355.824 135.106 355.863 132.563 356.347 133.305C356.952 134.232 356.602 137.236 356.432 136.138" stroke="black" stroke-width="0.358718"/>
<path d="M355.704 122.804C331.493 132.83 250.395 152.156 121.143 146.396M118.504 137.413C151.307 137.6 227.578 128.408 237.863 122.949M237.863 122.949C237.925 122.916 237.985 122.883 238.042 122.85C241.102 121.103 238.223 122.678 237.863 122.949Z" stroke="black" stroke-width="0.358718"/>
<path d="M167.747 120.655C153.51 121.889 123.524 125.568 117.47 130.412" stroke="black" stroke-width="0.358718"/>
<path d="M252.573 93.8151C182.465 93.4148 162.703 91.0639 122.243 93.0709C120.006 97.4836 116.843 109.033 122.09 119.927C203.333 122.182 242.815 123.601 252.4 124.028L358.462 124.634C355.877 118.898 354.892 113.918 354.778 109.726C354.556 101.564 357.633 96.3865 358.634 94.4207L252.573 93.8151Z" fill="#78512C"/>
<path d="M358.462 124.634C362.544 113.322 360.278 99.7784 358.634 94.4207C357.633 96.3865 354.556 101.564 354.778 109.726C354.892 113.918 355.877 118.898 358.462 124.634Z" fill="#78512C"/>
<path d="M252.573 93.8151C182.465 93.4148 162.703 91.0639 122.243 93.0709C120.006 97.4836 116.843 109.033 122.09 119.927C203.333 122.182 242.815 123.601 252.4 124.028L358.462 124.634M252.573 93.8151C286.917 94.0112 354.14 94.3951 358.634 94.4207M252.573 93.8151L358.634 94.4207M358.634 94.4207C360.278 99.7784 362.544 113.322 358.462 124.634M358.634 94.4207C357.633 96.3865 354.556 101.564 354.778 109.726C354.892 113.918 355.877 118.898 358.462 124.634" stroke="black" stroke-width="1.85895"/>
<path d="M357.771 102.096C358.14 101.875 358.913 102.787 359.053 108.203C359.192 113.619 358.498 114.47 358.133 114.218C357.769 114.281 357.031 113.18 356.994 108.265C356.957 103.35 357.711 103.149 358.093 103.662C358.455 104.45 359.061 106.842 358.587 110.108C358.113 113.374 357.517 110.14 357.534 108.879C357.493 107.514 357.533 104.971 358.017 105.713C358.621 106.64 358.271 109.644 358.101 108.547" stroke="black" stroke-width="0.358718"/>
<path d="M357.374 95.2125C333.162 105.238 252.064 124.565 122.813 118.804M120.174 109.821C152.976 110.009 229.247 100.816 239.532 95.3571M239.532 95.3571C239.594 95.324 239.654 95.291 239.712 95.2581C242.771 93.5113 239.892 95.0867 239.532 95.3571Z" stroke="black" stroke-width="0.358718"/>
<path d="M169.416 93.0631C155.18 94.2971 125.193 97.9762 119.139 102.82" stroke="black" stroke-width="0.358718"/>
<path d="M252.457 65.8263C182.349 65.4259 162.587 63.0751 122.127 65.0821C119.89 69.4948 116.727 81.0438 121.974 91.9383C203.218 94.1927 242.699 95.6118 252.285 96.0396L358.346 96.6452C355.762 90.9091 354.777 85.9294 354.662 81.7371C354.44 73.5753 357.518 68.3977 358.519 66.4319L252.457 65.8263Z" fill="#78512C"/>
<path d="M358.346 96.6452C362.428 85.3328 360.162 71.7895 358.519 66.4319C357.518 68.3977 354.44 73.5753 354.662 81.7371C354.777 85.9294 355.762 90.9091 358.346 96.6452Z" fill="#78512C"/>
<path d="M252.457 65.8263C182.349 65.4259 162.587 63.0751 122.127 65.0821C119.89 69.4948 116.727 81.0438 121.974 91.9383C203.218 94.1927 242.699 95.6118 252.285 96.0396L358.346 96.6452M252.457 65.8263C286.801 66.0224 354.024 66.4062 358.519 66.4319M252.457 65.8263L358.519 66.4319M358.519 66.4319C360.162 71.7895 362.428 85.3328 358.346 96.6452M358.519 66.4319C357.518 68.3977 354.44 73.5753 354.662 81.7371C354.777 85.9294 355.762 90.9091 358.346 96.6452" stroke="black" stroke-width="1.85895"/>
<path d="M357.655 74.1075C358.024 73.8863 358.797 74.7982 358.937 80.2142C359.076 85.6303 358.382 86.4809 358.017 86.2292C357.653 86.2926 356.915 85.1907 356.878 80.2757C356.841 75.3608 357.595 75.1597 357.977 75.6735C358.339 76.4612 358.946 78.8531 358.472 82.1189C357.998 85.3847 357.401 82.1509 357.418 80.8898C357.378 79.5255 357.417 76.9823 357.901 77.7241C358.505 78.6515 358.156 81.6557 357.985 80.5578" stroke="black" stroke-width="0.358718"/>
<path d="M357.258 67.2237C333.046 77.2493 251.948 96.5758 122.697 90.8156M120.058 81.8324C152.86 82.0197 229.132 72.8271 239.416 67.3682M239.416 67.3682C239.479 67.3351 239.539 67.3021 239.596 67.2693C242.655 65.5225 239.776 67.0978 239.416 67.3682Z" stroke="black" stroke-width="0.358718"/>
<path d="M169.3 65.0742C155.064 66.3082 125.077 69.9873 119.023 74.8314" stroke="black" stroke-width="0.358718"/>
<path d="M340.848 219.183C340.684 218.663 340.162 218.343 339.623 218.443C309.781 223.998 279.074 220.905 263.932 222.087C270.638 222.116 275.557 228.013 278.232 235.713C279.406 239.094 280.931 246.897 277.187 256.704C345.696 244.397 342.504 238.556 342.698 236.799C343.894 226.007 342.561 224.639 340.848 219.183Z" fill="#78502C"/>
<path d="M261.382 222.349C247.751 228.558 237.848 236.183 259.762 255.055C264.205 245.182 274.337 259.254 277.187 256.704C280.931 246.897 279.406 239.094 278.232 235.713C275.557 228.013 270.638 222.116 263.932 222.087C263.014 222.158 262.162 222.245 261.382 222.349Z" fill="#78502C"/>
<path d="M261.382 222.349C247.751 228.558 237.848 236.183 259.762 255.055C264.205 245.182 274.337 259.254 277.187 256.704M261.382 222.349C262.258 222.168 263.109 222.083 263.932 222.087M261.382 222.349C262.162 222.245 263.014 222.158 263.932 222.087M277.187 256.704C345.696 244.397 342.504 238.556 342.698 236.799C343.894 226.007 342.561 224.639 340.848 219.183C340.684 218.663 340.162 218.343 339.623 218.443C309.781 223.998 279.074 220.905 263.932 222.087M277.187 256.704C280.931 246.897 279.406 239.094 278.232 235.713C275.557 228.013 270.638 222.116 263.932 222.087" stroke="black" stroke-width="2.70418"/>
<path d="M261.352 229.477C258.221 229.157 252.251 231.366 253.415 242.757C254.579 254.148 260.659 255.659 263.553 254.991C266.58 254.982 272.184 252.389 270.387 242.087C268.59 231.785 262.297 231.656 259.375 232.88C256.729 234.669 252.761 239.911 258.058 246.563C263.355 253.216 266.883 246.215 266.202 243.582C265.954 240.71 264.543 235.402 260.878 237.143C256.297 239.318 260.461 245.471 261.393 243.107" stroke="black" stroke-width="0.358718"/>
<path d="M319.505 222.129C327.098 222.111 342.169 222.722 341.713 225.315" stroke="black" stroke-width="0.358718"/>
<path d="M268.043 222.84C280.799 231.525 313.273 246.714 341.126 237.988" stroke="black" stroke-width="0.358718"/>
<path d="M302.485 223.093C306.044 226.714 319.004 233.106 342.372 229.695" stroke="black" stroke-width="0.358718"/>
<path d="M341.373 195.653C341.233 195.117 340.714 194.771 340.165 194.856C309.731 199.568 276.143 194.869 260.766 195.455C267.564 195.805 272.409 202.537 274.937 211.152C276.047 214.935 277.408 223.607 273.38 234.24C343.117 223.918 342.612 217.161 342.851 215.233C344.325 203.345 342.989 201.81 341.373 195.653Z" fill="#78502C"/>
<path d="M258.175 195.623C244.21 201.822 241.789 234.134 257.563 238.175C261.628 238.378 270.431 236.916 273.38 234.24C277.408 223.607 276.047 214.935 274.937 211.152C272.409 202.537 267.564 195.805 260.766 195.455C259.834 195.491 258.969 195.546 258.175 195.623Z" fill="#78502C"/>
<path d="M258.175 195.623C244.21 201.822 241.789 234.134 257.563 238.175C261.628 238.378 270.431 236.916 273.38 234.24M258.175 195.623C259.068 195.465 259.932 195.412 260.766 195.455M258.175 195.623C258.969 195.546 259.834 195.491 260.766 195.455M273.38 234.24C343.117 223.918 342.612 217.161 342.851 215.233C344.325 203.345 342.989 201.81 341.373 195.653C341.233 195.117 340.714 194.771 340.165 194.856C309.731 199.568 276.143 194.869 260.766 195.455M273.38 234.24C277.408 223.607 276.047 214.935 274.937 211.152C272.409 202.537 267.564 195.805 260.766 195.455" stroke="black" stroke-width="2.70418"/>
<path d="M260.565 203.311C257.399 202.81 251.294 204.962 252.204 217.573C253.113 230.185 259.24 232.138 262.19 231.538C265.258 231.672 271.001 229.079 269.424 217.638C267.847 206.197 261.471 205.758 258.48 206.968C255.755 208.815 251.608 214.405 256.819 221.989C262.031 229.572 265.774 222.023 265.146 219.088C264.963 215.911 263.658 209.993 259.902 211.738C255.207 213.92 259.282 220.899 260.282 218.337" stroke="black" stroke-width="0.358718"/>
<path d="M319.686 197.965C327.383 198.304 342.647 199.692 342.123 202.528" stroke="black" stroke-width="0.358718"/>
<path d="M267.506 196.312C280.229 206.489 312.786 224.769 341.227 216.47" stroke="black" stroke-width="0.358718"/>
<path d="M302.414 198.221C305.936 202.382 318.921 210.04 342.689 207.388" stroke="black" stroke-width="0.358718"/>
<path d="M341.011 170.102C340.869 169.571 340.356 169.226 339.811 169.306C309.294 173.781 275.697 169.246 260.293 169.788C267.097 170.131 271.891 176.577 274.35 184.821C275.43 188.441 276.719 196.739 272.595 206.906C342.51 197.113 342.06 190.648 342.316 188.804C343.89 177.453 342.573 175.969 341.011 170.102Z" fill="#78502C"/>
<path d="M257.698 169.946C243.662 175.86 240.965 206.768 256.725 210.651C260.793 210.851 269.62 209.462 272.595 206.906C276.719 196.739 275.43 188.441 274.35 184.821C271.891 176.577 267.097 170.131 260.293 169.788C259.36 169.821 258.493 169.873 257.698 169.946Z" fill="#78502C"/>
<path d="M257.698 169.946C243.662 175.86 240.965 206.768 256.725 210.651C260.793 210.851 269.62 209.462 272.595 206.906M257.698 169.946C258.593 169.796 259.458 169.746 260.293 169.788M257.698 169.946C258.493 169.873 259.36 169.821 260.293 169.788M272.595 206.906C342.51 197.113 342.06 190.648 342.316 188.804C343.89 177.453 342.573 175.969 341.011 170.102C340.869 169.571 340.356 169.226 339.811 169.306C309.294 173.781 275.697 169.246 260.293 169.788M272.595 206.906C276.719 196.739 275.43 188.441 274.35 184.821C271.891 176.577 267.097 170.131 260.293 169.788" stroke="black" stroke-width="2.70418"/>
<path d="M260.027 177.303C256.862 176.821 250.731 178.872 251.535 190.937C252.339 203.003 258.457 204.879 261.416 204.308C264.487 204.44 270.259 201.966 268.777 191.02C267.295 180.073 260.914 179.645 257.909 180.799C255.165 182.563 250.965 187.906 256.119 195.167C261.273 202.427 265.085 195.209 264.481 192.402C264.325 189.362 263.068 183.699 259.293 185.364C254.573 187.445 258.594 194.127 259.617 191.677" stroke="black" stroke-width="0.358718"/>
<path d="M319.268 172.258C326.972 172.591 342.243 173.936 341.694 176.649" stroke="black" stroke-width="0.358718"/>
<path d="M267.034 170.616C279.688 180.366 312.133 197.891 340.68 189.985" stroke="black" stroke-width="0.358718"/>
<path d="M301.971 172.483C305.463 176.467 318.4 183.809 342.221 181.299" stroke="black" stroke-width="0.358718"/>
<path d="M341.543 144.734C341.421 144.2 340.924 143.836 340.378 143.891C309.302 147.027 275.471 141.134 259.855 141.021C266.727 141.645 271.317 148.21 273.468 156.451C274.412 160.07 275.377 168.315 270.787 178.177C341.954 171.454 341.764 165.054 342.098 163.245C344.156 152.109 342.884 150.587 341.543 144.734Z" fill="#78502C"/>
<path d="M257.222 141.067C242.773 146.314 238.777 176.709 254.57 181.206C258.68 181.574 267.671 180.575 270.787 178.177C275.377 168.315 274.412 160.07 273.468 156.451C271.317 148.21 266.727 141.645 259.855 141.021C258.909 141.014 258.029 141.028 257.222 141.067Z" fill="#78502C"/>
<path d="M257.222 141.067C242.773 146.314 238.777 176.709 254.57 181.206C258.68 181.574 267.671 180.575 270.787 178.177M257.222 141.067C258.134 140.957 259.012 140.944 259.855 141.021M257.222 141.067C258.029 141.028 258.909 141.014 259.855 141.021M270.787 178.177C341.954 171.454 341.764 165.054 342.098 163.245C344.156 152.109 342.884 150.587 341.543 144.734C341.421 144.2 340.924 143.836 340.378 143.891C309.302 147.027 275.471 141.134 259.855 141.021M270.787 178.177C275.377 168.315 274.412 160.07 273.468 156.451C271.317 148.21 266.727 141.645 259.855 141.021" stroke="black" stroke-width="2.70418"/>
<path d="M259.282 148.434C256.097 147.823 249.808 149.587 250.132 161.53C250.457 173.473 256.573 175.585 259.591 175.148C262.695 175.408 268.638 173.212 267.582 162.344C266.526 151.477 260.084 150.783 256.996 151.795C254.147 153.419 249.679 158.514 254.601 165.899C259.523 173.285 263.675 166.323 263.177 163.526C263.142 160.519 262.101 154.876 258.211 156.359C253.349 158.213 257.148 164.978 258.283 162.604" stroke="black" stroke-width="0.358718"/>
<path d="M319.452 145.974C327.237 146.63 342.64 148.608 341.975 151.262" stroke="black" stroke-width="0.358718"/>
<path d="M266.647 142.131C279.06 152.293 311.19 170.971 340.407 164.381" stroke="black" stroke-width="0.358718"/>
<path d="M301.935 145.46C305.307 149.541 318.104 157.338 342.318 155.873" stroke="black" stroke-width="0.358718"/>
<path d="M342.89 75.8414C342.788 75.3066 342.312 74.9218 341.768 74.948C309.772 76.4867 275.365 69.0055 259.364 68.1156C266.376 69.0718 270.773 75.7499 272.593 83.9533C273.392 87.555 273.997 95.7032 268.836 105.163C342.066 102.106 342.169 95.8094 342.595 94.0489C345.221 83.2154 343.991 81.6538 342.89 75.8414Z" fill="#78502C"/>
<path d="M256.664 68.03C241.616 72.4637 236.106 102.125 252.079 107.33C256.272 107.897 265.531 107.363 268.836 105.163C273.997 95.7032 273.392 87.555 272.593 83.9533C270.773 75.7499 266.376 69.0718 259.364 68.1156C258.395 68.0617 257.493 68.032 256.664 68.03Z" fill="#78502C"/>
<path d="M256.664 68.03C241.616 72.4637 236.106 102.125 252.079 107.33C256.272 107.897 265.531 107.363 268.836 105.163M256.664 68.03C257.603 67.9671 258.503 67.9983 259.364 68.1156M256.664 68.03C257.493 68.032 258.395 68.0617 259.364 68.1156M268.836 105.163C342.066 102.106 342.169 95.8094 342.595 94.0489C345.221 83.2154 343.991 81.6538 342.89 75.8414C342.788 75.3066 342.312 74.9218 341.768 74.948C309.772 76.4867 275.365 69.0055 259.364 68.1156M268.836 105.163C273.997 95.7032 273.392 87.555 272.593 83.9533C270.773 75.7499 266.376 69.0718 259.364 68.1156" stroke="black" stroke-width="2.70418"/>
<path d="M258.428 75.3633C255.194 74.6056 248.667 76.0274 248.439 87.7766C248.211 99.5258 254.379 101.903 257.492 101.623C260.659 102.032 266.851 100.168 266.279 89.4396C265.707 78.7107 259.14 77.7108 255.928 78.5519C252.933 80.0067 248.116 84.7912 252.813 92.2903C257.509 99.7893 262.09 93.155 261.711 90.3824C261.817 87.4268 261.014 81.8317 256.959 83.0962C251.891 84.6767 255.466 91.5111 256.74 89.2347" stroke="black" stroke-width="0.358718"/>
<path d="M320.194 75.9211C328.14 76.9512 343.829 79.6552 343.022 82.2298" stroke="black" stroke-width="0.358718"/>
<path d="M266.271 69.5353C278.512 80.1329 310.555 100.071 340.8 95.0415" stroke="black" stroke-width="0.358718"/>
<path d="M302.269 74.5504C305.532 78.7266 318.279 87.0185 343.156 86.7771" stroke="black" stroke-width="0.358718"/>
<path d="M343.405 54.6156C343.343 54.0746 342.909 53.642 342.365 53.6124C310.497 51.8747 278.776 39.6078 262.991 37.1018C269.851 38.7633 273.535 45.8523 274.508 54.1977C274.935 57.8617 274.708 66.029 268.625 74.9173C341.594 79.2942 342.336 73.0403 342.938 71.3321C346.642 60.8266 344.059 60.3782 343.405 54.6156Z" fill="#78502C"/>
<path d="M260.32 36.743C244.939 39.6295 236.46 68.5793 251.779 75.3752C255.882 76.364 265.123 76.7711 268.625 74.9173C274.708 66.029 274.935 57.8617 274.508 54.1977C273.535 45.8523 269.851 38.7633 262.991 37.1018C262.035 36.95 261.143 36.8291 260.32 36.743Z" fill="#78502C"/>
<path d="M260.32 36.743C244.939 39.6295 236.46 68.5793 251.779 75.3752C255.882 76.364 265.123 76.7711 268.625 74.9173M260.32 36.743C261.259 36.7757 262.149 36.8979 262.991 37.1018M260.32 36.743C261.143 36.8291 262.035 36.95 262.991 37.1018M268.625 74.9173C341.594 79.2942 342.336 73.0403 342.938 71.3321C346.642 60.8266 344.059 60.3782 343.405 54.6156C343.343 54.0746 342.909 53.642 342.365 53.6124C310.497 51.8747 278.776 39.6078 262.991 37.1018M268.625 74.9173C274.708 66.029 274.935 57.8617 274.508 54.1977C273.535 45.8523 269.851 38.7633 262.991 37.1018" stroke="black" stroke-width="2.70418"/>
<path d="M261.325 44.2171C258.193 43.1356 251.573 43.889 250.153 55.5543C248.733 67.2196 254.612 70.2091 257.728 70.2457C260.83 70.9738 267.163 69.7471 267.685 59.0158C268.208 48.2845 261.793 46.6245 258.521 47.1359C255.401 48.2798 250.136 52.5516 254.034 60.4876C257.932 68.4236 263.151 62.2876 263.057 59.491C263.462 56.5614 263.234 50.9139 259.082 51.7611C253.893 52.8201 256.745 59.9812 258.241 57.8457" stroke="black" stroke-width="0.358718"/>
<path d="M322.554 51.0287C330.333 52.8584 345.625 57.1377 344.563 59.6173" stroke="black" stroke-width="0.358718"/>
<path d="M269.7 39.2138C280.768 50.9965 310.536 74.0771 341.056 72.1377" stroke="black" stroke-width="0.358718"/>
<path d="M304.908 47.8496C307.721 52.3348 319.526 61.875 344.234 64.1549" stroke="black" stroke-width="0.358718"/>
<path d="M343.424 29.9433C343.331 29.4124 342.869 29.0215 342.33 29.0315C310.304 29.6253 276.09 21.6262 260.115 20.3539C267.101 21.4464 271.329 27.8758 272.943 35.6771C273.652 39.1022 274.054 46.8185 268.657 55.6192C341.937 54.7043 342.197 48.7566 342.668 47.1044C345.557 36.9603 344.378 35.4354 343.424 29.9433Z" fill="#78502C"/>
<path d="M257.418 20.2001C242.264 23.9844 236.016 51.8658 251.852 57.2149C256.03 57.8637 265.299 57.609 268.657 55.6192C274.054 46.8185 273.652 39.1022 272.943 35.6771C271.329 27.8758 267.101 21.4464 260.115 20.3539C259.148 20.2768 258.247 20.2244 257.418 20.2001Z" fill="#78502C"/>
<path d="M257.418 20.2001C242.264 23.9844 236.016 51.8658 251.852 57.2149C256.03 57.8637 265.299 57.609 268.657 55.6192M257.418 20.2001C258.359 20.166 259.258 20.2197 260.115 20.3539M257.418 20.2001C258.247 20.2244 259.148 20.2768 260.115 20.3539M268.657 55.6192C341.937 54.7043 342.197 48.7566 342.668 47.1044C345.557 36.9603 344.378 35.4354 343.424 29.9433C343.331 29.4124 342.869 29.0215 342.33 29.0315C310.304 29.6253 276.09 21.6262 260.115 20.3539M268.657 55.6192C274.054 46.8185 273.652 39.1022 272.943 35.6771C271.329 27.8758 267.101 21.4464 260.115 20.3539" stroke="black" stroke-width="2.70418"/>
<path d="M258.997 27.1776C255.783 26.3743 249.223 27.542 248.702 38.6389C248.18 49.7357 254.286 52.1483 257.405 51.9674C260.561 52.4396 266.797 50.8455 266.494 40.6913C266.19 30.5371 259.65 29.4151 256.418 30.1234C253.388 31.4175 248.453 35.809 252.961 43.0222C257.468 50.2353 262.213 44.0894 261.904 41.4591C262.083 38.6689 261.42 33.3599 257.336 34.4455C252.23 35.8025 255.632 42.3573 256.963 40.2405" stroke="black" stroke-width="0.358718"/>
<path d="M320.726 29.3697C328.643 30.5574 344.259 33.5355 343.388 35.9468" stroke="black" stroke-width="0.358718"/>
<path d="M266.984 21.8815C278.956 32.2262 310.489 51.9311 340.849 47.9939" stroke="black" stroke-width="0.358718"/>
<path d="M302.843 27.5913C306.001 31.6258 318.535 39.8053 343.41 40.2478" stroke="black" stroke-width="0.358718"/>
<path d="M342.153 99.2772C342.025 98.7544 341.54 98.3929 341.004 98.4324C311.616 100.598 279.736 95.1157 264.988 94.7826C271.474 95.414 275.735 101.021 277.673 108.005C278.524 111.071 279.342 118.04 274.892 126.288C342.207 121.702 342.1 116.301 342.436 114.78C344.491 105.495 343.343 104.137 342.153 99.2772Z" fill="#78502C"/>
<path d="M262.5 94.7816C248.789 98.9864 244.666 124.562 259.536 128.595C263.414 128.969 271.921 128.263 274.892 126.288C279.342 118.04 278.524 111.071 277.673 108.005C275.735 101.021 271.474 95.414 264.988 94.7826C264.094 94.7624 263.263 94.7611 262.5 94.7816Z" fill="#78502C"/>
<path d="M262.5 94.7816C248.789 98.9864 244.666 124.562 259.536 128.595C263.414 128.969 271.921 128.263 274.892 126.288M262.5 94.7816C263.363 94.7025 264.192 94.705 264.988 94.7826M262.5 94.7816C263.263 94.7611 264.094 94.7624 264.988 94.7826M274.892 126.288C342.207 121.702 342.1 116.301 342.436 114.78C344.491 105.495 343.343 104.137 342.153 99.2772C342.025 98.7544 341.54 98.3929 341.004 98.4324C311.616 100.598 279.736 95.1157 264.988 94.7826M274.892 126.288C279.342 118.04 278.524 111.071 277.673 108.005C275.735 101.021 271.474 95.414 264.988 94.7826" stroke="black" stroke-width="2.70418"/>
<path d="M264.357 101.021C261.355 100.458 255.393 101.852 255.559 111.93C255.725 122.009 261.479 123.881 264.335 123.557C267.264 123.823 272.904 122.059 272.035 112.877C271.165 103.695 265.088 103.014 262.158 103.821C259.447 105.149 255.166 109.38 259.729 115.682C264.293 121.985 268.297 116.175 267.86 113.808C267.862 111.271 266.944 106.497 263.252 107.689C258.637 109.18 262.147 114.943 263.247 112.958" stroke="black" stroke-width="0.358718"/>
<path d="M321.235 99.8412C328.582 100.511 343.111 102.408 342.451 104.637" stroke="black" stroke-width="0.358718"/>
<path d="M271.393 95.8141C283 104.57 313.135 120.802 340.816 115.679" stroke="black" stroke-width="0.358718"/>
<path d="M304.692 99.1473C307.83 102.64 319.828 109.406 342.722 108.531" stroke="black" stroke-width="0.358718"/>
<path d="M341.442 120.252C341.324 119.723 340.838 119.356 340.296 119.4C310.047 121.848 277.294 115.965 262.125 115.645C268.791 116.314 273.127 122.41 275.063 130.014C275.913 133.352 276.696 140.942 272.052 149.942C341.327 144.75 341.262 138.866 341.62 137.208C343.82 127.043 342.631 125.598 341.442 120.252Z" fill="#78502C"/>
<path d="M259.565 115.651C245.428 120.272 240.976 148.149 256.238 152.5C260.224 152.896 268.979 152.102 272.052 149.942C276.696 140.942 275.913 133.352 275.063 130.014C273.127 122.41 268.791 116.314 262.125 115.645C261.205 115.625 260.351 115.626 259.565 115.651Z" fill="#78502C"/>
<path d="M259.565 115.651C245.428 120.272 240.976 148.149 256.238 152.5C260.224 152.896 268.979 152.102 272.052 149.942M259.565 115.651C260.453 115.562 261.307 115.562 262.125 115.645M259.565 115.651C260.351 115.626 261.205 115.625 262.125 115.645M272.052 149.942C341.327 144.75 341.262 138.866 341.62 137.208C343.82 127.043 342.631 125.598 341.442 120.252C341.324 119.723 340.838 119.356 340.296 119.4C310.047 121.848 277.294 115.965 262.125 115.645M272.052 149.942C276.696 140.942 275.913 133.352 275.063 130.014C273.127 122.41 268.791 116.314 262.125 115.645" stroke="black" stroke-width="2.70418"/>
<path d="M261.426 122.443C258.343 121.839 252.199 123.375 252.286 134.355C252.374 145.335 258.277 147.358 261.217 146.997C264.228 147.278 270.044 145.34 269.225 135.339C268.406 125.337 262.161 124.613 259.14 125.501C256.341 126.955 251.903 131.577 256.545 138.431C261.186 145.284 265.353 138.942 264.923 136.365C264.946 133.601 264.042 128.402 260.234 129.712C255.475 131.35 259.037 137.618 260.185 135.452" stroke="black" stroke-width="0.358718"/>
<path d="M319.936 120.993C327.488 121.702 342.416 123.727 341.719 126.157" stroke="black" stroke-width="0.358718"/>
<path d="M268.701 116.75C280.568 126.257 311.43 143.855 339.944 138.193" stroke="black" stroke-width="0.358718"/>
<path d="M302.925 120.285C306.123 124.081 318.409 131.419 341.964 130.399" stroke="black" stroke-width="0.358718"/>
<rect x="133.317" y="103.61" width="61.6995" height="58.471" transform="rotate(1.2332 133.317 103.61)" fill="#FFC700" fill-opacity="0.17"/>
<path d="M174.975 226.695C102.474 226.243 82.0369 223.878 40.1982 225.855C37.8878 230.266 34.6255 241.813 40.0594 252.712C124.076 255.026 164.906 256.474 174.818 256.909L284.498 257.592C281.822 251.854 280.799 246.874 280.678 242.681C280.442 234.519 283.621 229.344 284.655 227.379L174.975 226.695Z" fill="#78512C"/>
<path d="M284.498 257.592C288.712 246.283 286.358 232.738 284.655 227.379C283.621 229.344 280.442 234.519 280.678 242.681C280.799 246.874 281.822 251.854 284.498 257.592Z" fill="#78512C"/>
<path d="M174.975 226.695C102.474 226.243 82.0369 223.878 40.1982 225.855C37.8878 230.266 34.6255 241.813 40.0594 252.712C124.076 255.026 164.906 256.474 174.818 256.909L284.498 257.592M174.975 226.695C210.49 226.917 280.007 227.35 284.655 227.379M174.975 226.695L284.655 227.379M284.655 227.379C286.358 232.738 288.712 246.283 284.498 257.592M284.655 227.379C283.621 229.344 280.442 234.519 280.678 242.681C280.799 246.874 281.822 251.854 284.498 257.592" stroke="black" stroke-width="1.85895"/>
<path d="M283.764 235.054C284.146 234.833 284.945 235.745 285.094 241.161C285.243 246.578 284.525 247.428 284.148 247.176C283.771 247.239 283.007 246.136 282.965 241.221C282.923 236.306 283.703 236.106 284.098 236.62C284.473 237.408 285.102 239.8 284.614 243.066C284.127 246.331 283.507 243.097 283.524 241.836C283.481 240.472 283.52 237.928 284.021 238.671C284.647 239.598 284.287 242.602 284.11 241.504" stroke="black" stroke-width="0.358718"/>
<path d="M283.352 228.169C258.322 238.177 174.472 257.445 40.807 251.59M38.0712 242.604C71.9928 242.816 150.859 233.679 161.491 228.228M161.491 228.228C161.555 228.194 161.617 228.161 161.677 228.129C164.839 226.384 161.863 227.957 161.491 228.228Z" stroke="black" stroke-width="0.358718"/>
<path d="M88.9787 225.882C74.2575 227.106 43.2509 230.763 36.9937 235.602" stroke="black" stroke-width="0.358718"/>
<path d="M176.584 72.8101C103.47 72.3419 82.8591 69.9719 40.6665 71.9398C38.3376 76.3504 35.0502 87.8966 40.5326 98.7964C125.262 101.129 166.437 102.587 176.434 103.024L287.043 103.732C284.342 97.9934 283.31 93.0127 283.187 88.8202C282.947 80.658 286.152 75.4832 287.194 73.5184L176.584 72.8101Z" fill="#78512C"/>
<path d="M287.043 103.732C291.289 92.4235 288.913 78.8777 287.194 73.5184C286.152 75.4832 282.947 80.658 283.187 88.8202C283.31 93.0127 284.342 97.9934 287.043 103.732Z" fill="#78512C"/>
<path d="M176.584 72.8101C103.47 72.3419 82.8591 69.9719 40.6665 71.9398C38.3376 76.3504 35.0502 87.8966 40.5326 98.7964C125.262 101.129 166.437 102.587 176.434 103.024L287.043 103.732M176.584 72.8101C212.401 73.0395 282.507 73.4884 287.194 73.5184M176.584 72.8101L287.194 73.5184M287.194 73.5184C288.913 78.8777 291.289 92.4235 287.043 103.732M287.194 73.5184C286.152 75.4832 282.947 80.658 283.187 88.8202C283.31 93.0127 284.342 97.9934 287.043 103.732" stroke="black" stroke-width="1.85895"/>
<path d="M286.298 81.1826C286.683 80.9618 287.489 81.8744 287.64 87.2907C287.791 92.707 287.068 93.557 286.687 93.3049C286.307 93.368 285.536 92.2654 285.493 87.3503C285.45 82.4352 286.237 82.2348 286.635 82.749C287.014 83.537 287.648 85.9295 287.157 89.195C286.666 92.4604 286.041 89.226 286.057 87.9649C286.014 86.6005 286.052 84.0572 286.558 84.7996C287.189 85.7275 286.827 88.7314 286.648 87.6334" stroke="black" stroke-width="0.358718"/>
<path d="M285.879 74.2984C260.639 84.3018 176.082 103.554 41.2844 97.6743M38.5238 88.6885C72.7327 88.9061 152.265 79.7837 162.986 74.3342M162.986 74.3342C163.051 74.3011 163.113 74.2682 163.173 74.2354C166.362 72.4914 163.361 74.0641 162.986 74.3342Z" stroke="black" stroke-width="0.358718"/>
<path d="M89.861 71.9775C75.0155 73.1978 43.7471 76.8479 37.438 81.6862" stroke="black" stroke-width="0.358718"/>
<path d="M245.369 134.852C218.18 135.347 210.544 133.307 194.825 135.773C193.901 140.098 192.529 151.386 194.426 161.93C225.912 163.1 241.208 163.984 244.921 164.279L286.054 163.531C283.896 158.34 282.963 153.252 282.971 149.17C282.027 140.898 286.089 136.031 286.502 134.104L245.369 134.852Z" fill="#78512C"/>
<path d="M286.054 163.531C287.78 152.462 287.072 139.301 286.502 134.104C286.089 136.031 282.027 140.898 282.971 149.17C282.963 153.252 283.896 158.34 286.054 163.531Z" fill="#78512C"/>
<path d="M245.369 134.852C218.18 135.347 210.544 133.307 194.825 135.773C193.901 140.098 192.529 151.386 194.426 161.93C225.912 163.1 241.208 163.984 244.921 164.279L286.054 163.531M245.369 134.852C258.688 134.61 284.759 134.135 286.502 134.104M245.369 134.852L286.502 134.104M286.502 134.104C287.072 139.301 287.78 152.462 286.054 163.531M286.502 134.104C286.089 136.031 282.027 140.898 282.971 149.17C282.963 153.252 283.896 158.34 286.054 163.531" stroke="black" stroke-width="1.43487"/>
<path d="M285.234 142.186C285.544 141.948 286.159 142.792 286.135 148.066C286.112 153.34 285.516 154.211 285.222 153.987C284.919 154.071 284.338 153.04 284.433 148.248C284.529 143.457 285.157 143.216 285.459 143.694C285.738 144.441 286.178 146.738 285.702 149.951C285.227 153.164 284.817 150.046 284.864 148.815C284.865 147.487 284.963 145.004 285.344 145.699C285.819 146.567 285.453 149.518 285.341 148.457" stroke="black" stroke-width="0.349454"/>
<path d="M285.908 134.523C276.39 144.592 244.786 164.806 194.723 160.827M193.813 152.112C206.535 151.88 236.235 141.965 240.294 136.519M240.294 136.519C240.318 136.486 240.342 136.453 240.365 136.42C241.573 134.68 240.437 136.251 240.294 136.519Z" stroke="black" stroke-width="0.349454"/>
<path d="M213.124 135.17C207.586 136.551 195.908 140.513 193.498 145.307" stroke="black" stroke-width="0.349454"/>
<path d="M246.399 104.376C219.21 104.871 211.574 102.831 195.855 105.297C194.931 109.622 192.627 127.889 194.794 134.355C227.52 135.06 242.238 133.508 245.951 133.803L287.084 133.055C284.747 127.501 283.706 123.711 283.822 118.332C284.058 107.384 287.119 105.555 287.532 103.628L246.399 104.376Z" fill="#78512C"/>
<path d="M287.084 133.055C288.81 121.986 288.102 108.825 287.532 103.628C287.119 105.555 284.058 107.384 283.822 118.332C283.706 123.711 284.747 127.501 287.084 133.055Z" fill="#78512C"/>
<path d="M246.399 104.376C219.21 104.871 211.574 102.831 195.855 105.297C194.931 109.622 192.627 127.889 194.794 134.355C227.52 135.06 242.238 133.508 245.951 133.803L287.084 133.055M246.399 104.376C259.718 104.134 285.789 103.659 287.532 103.628M246.399 104.376L287.532 103.628M287.532 103.628C288.102 108.825 288.81 121.986 287.084 133.055M287.532 103.628C287.119 105.555 284.058 107.384 283.822 118.332C283.706 123.711 284.747 127.501 287.084 133.055" stroke="black" stroke-width="1.43487"/>
<path d="M285.827 111.692C286.113 111.457 286.68 112.305 286.658 117.579C286.635 122.853 286.086 123.719 285.815 123.493C285.536 123.574 285 122.538 285.089 117.747C285.177 112.957 285.756 112.721 286.035 113.202C286.292 113.951 286.697 116.251 286.258 119.461C285.82 122.67 285.442 119.548 285.485 118.318C285.487 116.99 285.577 114.508 285.928 115.205C286.366 116.078 286.029 119.026 285.925 117.964" stroke="black" stroke-width="0.349454"/>
<path d="M287.033 104.415C277.516 114.484 244.194 134.373 194.131 130.394M194.133 121.604C206.855 121.372 239.461 109.994 243.519 104.547" stroke="black" stroke-width="0.349454"/>
<path d="M215.647 104.306C210.11 105.688 196.937 110.037 194.528 114.831" stroke="black" stroke-width="0.349454"/>
<path d="M90.5908 133.314C63.4014 133.809 55.6455 130.888 39.9261 133.354C39.0026 137.679 37.0489 150.335 40.7516 161.678C72.2368 162.848 86.4299 162.446 90.1425 162.741L131.275 161.993C130.345 156.439 128.825 151.907 128.834 147.826C128.85 139.88 131.31 134.493 131.723 132.566L90.5908 133.314Z" fill="#78512C"/>
<path d="M131.275 161.993C133.001 150.924 132.293 137.763 131.723 132.566C131.31 134.493 128.85 139.88 128.834 147.826C128.825 151.907 130.345 156.439 131.275 161.993Z" fill="#78512C"/>
<path d="M90.5908 133.314C63.4014 133.809 55.6455 130.888 39.9261 133.354C39.0026 137.679 37.0489 150.335 40.7516 161.678C72.2368 162.848 86.4299 162.446 90.1425 162.741L131.275 161.993M90.5908 133.314C103.91 133.072 129.981 132.597 131.723 132.566M90.5908 133.314L131.723 132.566M131.723 132.566C132.293 137.763 133.001 150.924 131.275 161.993M131.723 132.566C131.31 134.493 128.85 139.88 128.834 147.826C128.825 151.907 130.345 156.439 131.275 161.993" stroke="black" stroke-width="1.43487"/>
<path d="M130.818 141.03C131.167 140.788 131.859 141.623 131.833 146.897C131.807 152.171 131.137 153.05 130.806 152.83C130.465 152.918 129.811 151.895 129.919 147.103C130.026 142.31 130.732 142.06 131.072 142.535C131.386 143.278 131.88 145.568 131.346 148.788C130.812 152.008 130.351 148.895 130.403 147.663C130.404 146.335 130.514 143.851 130.942 144.541C131.477 145.403 131.066 148.358 130.939 147.299" stroke="black" stroke-width="0.349454"/>
<path d="M131.225 133.353C121.707 143.422 90.0058 163.268 39.9432 159.289M39.0328 150.574C51.7543 150.342 81.4552 140.427 85.5134 134.981M85.5134 134.981C85.538 134.948 85.5617 134.915 85.5844 134.882C87.3085 132.4 85.6565 134.713 85.5134 134.981Z" stroke="black" stroke-width="0.349454"/>
<path d="M58.8019 133.222C53.2642 134.603 41.1303 138.975 38.7207 143.769" stroke="black" stroke-width="0.349454"/>
<path d="M91.8415 101.209C64.6522 101.704 56.4394 97.6435 40.72 100.109C38.7548 104.445 36.6335 119.649 40.0159 132.818C69.1213 131.791 87.4358 132.762 91.1729 132.266L132.306 131.517C131.376 125.963 129.478 121.603 129.486 117.521C129.503 109.575 132.341 104.017 132.754 102.09C131.011 102.122 105.161 100.967 91.8415 101.209Z" fill="#78512C"/>
<path d="M132.306 131.517C134.032 120.448 133.324 107.287 132.754 102.09C132.341 104.017 129.503 109.575 129.486 117.521C129.478 121.603 131.376 125.963 132.306 131.517Z" fill="#78512C"/>
<path d="M132.754 102.09C131.011 102.122 105.161 100.967 91.8415 101.209C64.6522 101.704 56.4394 97.6435 40.72 100.109C38.7548 104.445 36.6335 119.649 40.0159 132.818C69.1213 131.791 87.4358 132.762 91.1729 132.266L132.306 131.517M132.754 102.09C133.324 107.287 134.032 120.448 132.306 131.517M132.754 102.09C132.341 104.017 129.503 109.575 129.486 117.521C129.478 121.603 131.375 125.963 132.306 131.517" stroke="black" stroke-width="1.43487"/>
<path d="M131.588 110.205C131.977 109.958 132.75 110.785 132.721 116.059C132.693 121.334 131.945 122.221 131.575 122.005C131.195 122.097 130.464 121.083 130.584 116.289C130.703 111.495 131.491 111.236 131.871 111.706C132.222 112.445 132.774 114.73 132.178 117.956C131.582 121.183 131.066 118.076 131.124 116.844C131.126 115.515 131.248 113.03 131.726 113.714C132.324 114.569 131.865 117.53 131.723 116.473" stroke="black" stroke-width="0.349454"/>
<path d="M132.255 102.877C122.737 112.946 89.6901 132.661 39.6275 128.683M38.4192 120.046C51.1406 119.814 85.5494 106.86 89.6076 101.414" stroke="black" stroke-width="0.349454"/>
<path d="M65.1177 100.528C59.58 101.909 40.7694 109.689 38.3599 114.483" stroke="black" stroke-width="0.349454"/>
<path d="M176.202 163.566C103.62 163.101 83.1595 160.732 41.2741 162.702C38.962 167.113 34.448 181.628 39.8901 192.528C124.002 194.857 166.128 193.343 176.051 193.78L285.855 194.483C283.174 188.744 282.15 183.764 282.027 179.571C281.79 171.409 284.971 166.234 286.006 164.269L176.202 163.566Z" fill="#78512C"/>
<path d="M285.855 194.483C290.071 183.174 287.712 169.628 286.006 164.269C284.971 166.234 281.79 171.409 282.027 179.571C282.15 183.764 283.174 188.744 285.855 194.483Z" fill="#78512C"/>
<path d="M176.202 163.566C103.62 163.101 83.1595 160.732 41.2741 162.702C38.962 167.113 34.448 181.628 39.8901 192.528C124.002 194.857 166.128 193.343 176.051 193.78L285.855 194.483M176.202 163.566C211.758 163.794 281.353 164.239 286.006 164.269M176.202 163.566L286.006 164.269M286.006 164.269C287.712 169.628 290.071 183.174 285.855 194.483M286.006 164.269C284.971 166.234 281.79 171.409 282.027 179.571C282.15 183.764 283.174 188.744 285.855 194.483" stroke="black" stroke-width="1.85895"/>
<path d="M285.095 171.933C285.479 171.712 286.286 172.625 286.437 178.041C286.588 183.458 285.864 184.308 285.484 184.056C285.104 184.119 284.333 183.016 284.29 178.101C284.247 173.186 285.033 172.985 285.432 173.5C285.81 174.288 286.445 176.68 285.954 179.946C285.462 183.211 284.837 179.977 284.854 178.716C284.81 177.351 284.849 174.808 285.354 175.55C285.986 176.478 285.624 179.482 285.445 178.384" stroke="black" stroke-width="0.358718"/>
<path d="M284.676 165.049C259.522 175.053 172.31 194.252 37.9717 188.375M37.1389 179.387C71.2312 179.604 151.517 170.537 162.201 165.087M162.201 165.087C162.266 165.054 162.328 165.021 162.388 164.989C165.566 163.245 162.576 164.817 162.201 165.087Z" stroke="black" stroke-width="0.358718"/>
<path d="M88.6554 162.726C74.517 163.951 44.7377 167.612 38.7279 172.453" stroke="black" stroke-width="0.358718"/>
<path d="M175.651 195.121C103.151 194.66 82.7138 192.292 40.8758 194.264C38.5661 198.674 34.8023 213.206 40.2376 224.105C124.254 226.43 165.586 224.898 175.499 225.334L285.178 226.032C282.5 220.294 281.477 215.313 281.355 211.121C281.118 202.958 284.296 197.783 285.33 195.818L175.651 195.121Z" fill="#78512C"/>
<path d="M285.178 226.032C289.389 214.723 287.034 201.177 285.33 195.818C284.296 197.783 281.118 202.958 281.355 211.121C281.477 215.313 282.5 220.294 285.178 226.032Z" fill="#78512C"/>
<path d="M175.651 195.121C103.151 194.66 82.7138 192.292 40.8758 194.264C38.5661 198.674 34.8023 213.206 40.2376 224.105C124.254 226.43 165.586 224.898 175.499 225.334L285.178 226.032M175.651 195.121C211.166 195.347 280.682 195.789 285.33 195.818M175.651 195.121L285.33 195.818M285.33 195.818C287.034 201.177 289.389 214.723 285.178 226.032M285.33 195.818C284.296 197.783 281.118 202.958 281.355 211.121C281.477 215.313 282.5 220.294 285.178 226.032" stroke="black" stroke-width="1.85895"/>
<path d="M284.416 203.493C284.8 203.272 285.607 204.185 285.757 209.601C285.908 215.017 285.185 215.867 284.804 215.615C284.424 215.678 283.654 214.576 283.611 209.661C283.568 204.746 284.354 204.545 284.752 205.059C285.131 205.847 285.765 208.24 285.274 211.505C284.783 214.771 284.158 211.536 284.175 210.275C284.131 208.911 284.17 206.368 284.675 207.11C285.306 208.038 284.944 211.042 284.766 209.944" stroke="black" stroke-width="0.358718"/>
<path d="M283.997 196.609C258.756 206.612 174.199 225.864 39.4015 219.985M36.6409 210.999C70.8499 211.217 150.382 202.094 161.103 196.645M161.103 196.645C161.168 196.612 161.231 196.579 161.291 196.546C164.479 194.802 161.478 196.375 161.103 196.645Z" stroke="black" stroke-width="0.358718"/>
<path d="M87.975 194.286C74.153 195.255 45.0412 198.164 39.1697 202.048" stroke="black" stroke-width="0.358718"/>
<path d="M24.4064 62.6358L295.217 66.5508L294.676 91.6552L23.9072 85.8264L24.4064 62.6358Z" fill="#78502C" stroke="black" stroke-width="1.43487"/>
<path d="M25.1138 63.0687C92.2542 72.1086 240.927 88.3455 294.892 81.6135" stroke="black" stroke-width="0.358718"/>
<path d="M24.2317 70.7639C32.5047 72.4825 50.0471 78.0307 54.0327 86.4751" stroke="black" stroke-width="0.358718"/>
<path d="M1.71842 68.4978L20.4174 46.0842L323.096 50.2843L306.027 72.3915L1.71842 68.4978Z" fill="#2E1E0F" stroke="black" stroke-width="1.43487"/>
<path d="M324.372 49.8007C324.418 49.7428 324.511 49.7834 324.499 49.8562L324.095 52.4442L306.446 74.8844C306.36 74.9932 306.186 74.9297 306.19 74.7913L306.253 72.7171L324.372 49.8007Z" fill="#2E1E0F" stroke="black" stroke-width="0.358718"/>
<path d="M306.187 74.8685L0.885237 71.3307L0.407139 69.3423L306.242 73.0757L306.187 74.8685Z" fill="#2E1E0F" stroke="black" stroke-width="0.358718"/>
<path d="M12.8786 55.5584L31.5776 33.1448L334.256 37.3449L317.187 59.4521L12.8786 55.5584Z" fill="#2E1E0F" stroke="black" stroke-width="1.43487"/>
<path d="M335.532 36.8613C335.578 36.8034 335.671 36.8439 335.659 36.9168L335.256 39.5048L317.606 61.945C317.521 62.0538 317.346 61.9903 317.35 61.8519L317.413 59.7777L335.532 36.8613Z" fill="#2E1E0F" stroke="black" stroke-width="0.358718"/>
<path d="M317.348 61.929L12.0454 58.3913L11.5673 56.4029L317.402 60.1363L317.348 61.929Z" fill="#2E1E0F" stroke="black" stroke-width="0.358718"/>
<path d="M20.9104 43.5981L42.4121 20.9089L342.158 25.3814L325.088 47.4901L20.9104 43.5981Z" fill="#2E1E0F" stroke="black" stroke-width="1.43487"/>
<path d="M343.432 24.8995C343.478 24.8416 343.571 24.8822 343.559 24.9551L343.156 27.543L325.506 49.9832C325.421 50.092 325.246 50.0285 325.25 49.8901L325.313 47.8159L343.432 24.8995Z" fill="#2E1E0F" stroke="black" stroke-width="0.358718"/>
<path d="M325.248 49.9671L19.9456 46.4293L19.4675 44.441L325.302 48.1743L325.248 49.9671Z" fill="#2E1E0F" stroke="black" stroke-width="0.358718"/>
<path d="M30.0257 29.1597L49.1975 9.98617L351.198 10.959L334.141 33.0509L30.0257 29.1597Z" fill="#2E1E0F" stroke="black" stroke-width="1.43487"/>
<path d="M352.483 10.4602C352.529 10.4023 352.622 10.4428 352.61 10.5157L352.207 13.1037L334.557 35.5439C334.472 35.6527 334.297 35.5892 334.301 35.4508L334.364 33.3766L352.483 10.4602Z" fill="#2E1E0F" stroke="black" stroke-width="0.358718"/>
<path d="M334.301 35.5279L28.9992 31.9902L28.5211 30.0018L334.356 33.7351L334.301 35.5279Z" fill="#2E1E0F" stroke="black" stroke-width="0.358718"/>
</svg>
